<mxfile host="app.diagrams.net" modified="2021-06-09T08:16:08.443Z" agent="5.0 (Windows NT 10.0; Win64; x64) AppleWebKit/537.36 (KHTML, like Gecko) Chrome/91.0.4472.77 Safari/537.36" etag="fHE_gKp7yE9pk5OSFyXV" version="14.7.6" type="github">
  <diagram id="ibRxXM_m6VbLVrCtfdTp" name="第 1 页">
    <mxGraphModel dx="1422" dy="738" grid="1" gridSize="10" guides="1" tooltips="1" connect="1" arrows="1" fold="1" page="1" pageScale="1" pageWidth="827" pageHeight="1169" math="0" shadow="0">
      <root>
        <mxCell id="0" />
        <mxCell id="1" parent="0" />
        <mxCell id="USlTMkAZ-3_ImEjhnhkh-1" value="读者" style="rounded=0;whiteSpace=wrap;html=1;" vertex="1" parent="1">
          <mxGeometry x="294" y="320" width="120" height="60" as="geometry" />
        </mxCell>
        <mxCell id="USlTMkAZ-3_ImEjhnhkh-2" value="&lt;u&gt;借阅证号&lt;/u&gt;" style="ellipse;whiteSpace=wrap;html=1;" vertex="1" parent="1">
          <mxGeometry x="314" y="230" width="80" height="40" as="geometry" />
        </mxCell>
        <mxCell id="USlTMkAZ-3_ImEjhnhkh-3" value="姓名" style="ellipse;whiteSpace=wrap;html=1;" vertex="1" parent="1">
          <mxGeometry x="460" y="250" width="80" height="40" as="geometry" />
        </mxCell>
        <mxCell id="USlTMkAZ-3_ImEjhnhkh-4" value="身份证" style="ellipse;whiteSpace=wrap;html=1;" vertex="1" parent="1">
          <mxGeometry x="470" y="340" width="80" height="40" as="geometry" />
        </mxCell>
        <mxCell id="USlTMkAZ-3_ImEjhnhkh-5" value="性别" style="ellipse;whiteSpace=wrap;html=1;" vertex="1" parent="1">
          <mxGeometry x="460" y="420" width="80" height="40" as="geometry" />
        </mxCell>
        <mxCell id="USlTMkAZ-3_ImEjhnhkh-6" value="过期日期" style="ellipse;whiteSpace=wrap;html=1;" vertex="1" parent="1">
          <mxGeometry x="314" y="440" width="80" height="40" as="geometry" />
        </mxCell>
        <mxCell id="USlTMkAZ-3_ImEjhnhkh-7" value="是否挂失" style="ellipse;whiteSpace=wrap;html=1;" vertex="1" parent="1">
          <mxGeometry x="160" y="330" width="80" height="40" as="geometry" />
        </mxCell>
        <mxCell id="USlTMkAZ-3_ImEjhnhkh-8" value="借阅次数" style="ellipse;whiteSpace=wrap;html=1;" vertex="1" parent="1">
          <mxGeometry x="160" y="250" width="80" height="40" as="geometry" />
        </mxCell>
        <mxCell id="USlTMkAZ-3_ImEjhnhkh-9" value="已借图书数" style="ellipse;whiteSpace=wrap;html=1;" vertex="1" parent="1">
          <mxGeometry x="180" y="430" width="80" height="40" as="geometry" />
        </mxCell>
        <mxCell id="USlTMkAZ-3_ImEjhnhkh-10" value="" style="endArrow=none;html=1;exitX=0.425;exitY=0;exitDx=0;exitDy=0;exitPerimeter=0;entryX=0.388;entryY=0.975;entryDx=0;entryDy=0;entryPerimeter=0;" edge="1" parent="1" source="USlTMkAZ-3_ImEjhnhkh-1" target="USlTMkAZ-3_ImEjhnhkh-2">
          <mxGeometry width="50" height="50" relative="1" as="geometry">
            <mxPoint x="340" y="320" as="sourcePoint" />
            <mxPoint x="310" y="270" as="targetPoint" />
          </mxGeometry>
        </mxCell>
        <mxCell id="USlTMkAZ-3_ImEjhnhkh-11" value="" style="endArrow=none;html=1;" edge="1" parent="1">
          <mxGeometry width="50" height="50" relative="1" as="geometry">
            <mxPoint x="240" y="349.5" as="sourcePoint" />
            <mxPoint x="290" y="349.5" as="targetPoint" />
          </mxGeometry>
        </mxCell>
        <mxCell id="USlTMkAZ-3_ImEjhnhkh-14" value="" style="endArrow=none;html=1;" edge="1" parent="1" target="USlTMkAZ-3_ImEjhnhkh-4">
          <mxGeometry width="50" height="50" relative="1" as="geometry">
            <mxPoint x="414" y="360" as="sourcePoint" />
            <mxPoint x="464" y="360" as="targetPoint" />
          </mxGeometry>
        </mxCell>
        <mxCell id="USlTMkAZ-3_ImEjhnhkh-16" value="" style="endArrow=none;html=1;exitX=0.917;exitY=1;exitDx=0;exitDy=0;exitPerimeter=0;" edge="1" parent="1" source="USlTMkAZ-3_ImEjhnhkh-1">
          <mxGeometry width="50" height="50" relative="1" as="geometry">
            <mxPoint x="420" y="430" as="sourcePoint" />
            <mxPoint x="470" y="430" as="targetPoint" />
          </mxGeometry>
        </mxCell>
        <mxCell id="USlTMkAZ-3_ImEjhnhkh-17" value="" style="endArrow=none;html=1;entryX=0.375;entryY=-0.05;entryDx=0;entryDy=0;entryPerimeter=0;" edge="1" parent="1" target="USlTMkAZ-3_ImEjhnhkh-6">
          <mxGeometry width="50" height="50" relative="1" as="geometry">
            <mxPoint x="344" y="379" as="sourcePoint" />
            <mxPoint x="394" y="379" as="targetPoint" />
          </mxGeometry>
        </mxCell>
        <mxCell id="USlTMkAZ-3_ImEjhnhkh-25" value="" style="endArrow=none;html=1;" edge="1" parent="1">
          <mxGeometry width="50" height="50" relative="1" as="geometry">
            <mxPoint x="244" y="430" as="sourcePoint" />
            <mxPoint x="294" y="380" as="targetPoint" />
          </mxGeometry>
        </mxCell>
        <mxCell id="USlTMkAZ-3_ImEjhnhkh-27" value="" style="endArrow=none;html=1;" edge="1" parent="1">
          <mxGeometry width="50" height="50" relative="1" as="geometry">
            <mxPoint x="410" y="320" as="sourcePoint" />
            <mxPoint x="460" y="270" as="targetPoint" />
          </mxGeometry>
        </mxCell>
        <mxCell id="USlTMkAZ-3_ImEjhnhkh-28" value="" style="endArrow=none;html=1;entryX=0;entryY=0;entryDx=0;entryDy=0;" edge="1" parent="1" target="USlTMkAZ-3_ImEjhnhkh-1">
          <mxGeometry width="50" height="50" relative="1" as="geometry">
            <mxPoint x="230" y="280" as="sourcePoint" />
            <mxPoint x="300" y="300" as="targetPoint" />
          </mxGeometry>
        </mxCell>
      </root>
    </mxGraphModel>
  </diagram>
</mxfile>
